PathFileType	4	(X/Y/Z)	/Users/niels/Desktop/University/Third Semester/Perception and Action/Exam/Gymnastics Motion Tracking/Code for Gym Tracking/Analyzed Data/Webcam_Backflip/id3_5_trajectory_Sports2D/id3_5_trajectory_Sports2D_px_person00.trc
DataRate	CameraRate	NumFrames	NumMarkers	Units	OrigDataRate	OrigDataStartFrame	OrigNumFrames
29.8125	29.8125	9	22	m	29.8125	20	160
Frame#	Time	Hip			RHip			RKnee			RAnkle			RBigToe			RSmallToe			RHeel			LHip			LKnee			LAnkle			LBigToe			LSmallToe			LHeel			Neck			Head			Nose			RShoulder			RElbow			RWrist			LShoulder			LElbow			LWrist		
		X1	Y1	Z1	X2	Y2	Z2	X3	Y3	Z3	X4	Y4	Z4	X5	Y5	Z5	X6	Y6	Z6	X7	Y7	Z7	X8	Y8	Z8	X9	Y9	Z9	X10	Y10	Z10	X11	Y11	Z11	X12	Y12	Z12	X13	Y13	Z13	X14	Y14	Z14	X15	Y15	Z15	X16	Y16	Z16	X17	Y17	Z17	X18	Y18	Z18	X19	Y19	Z19	X20	Y20	Z20	X21	Y21	Z21	X22	Y22	Z22
20	0.670859538784067	0.9767742279721219	-0.5546320319297118	0.0	0.9764869155498449	-0.5517168964919635	0.0	1.003946251493638	-0.6609625770017629	0.0	0.9804728161949188	-0.7740725502273854	0.0	1.0206681436567664	-0.7909588551749377	0.0	1.0100643062496506	-0.7960948398818612	0.0	0.9689896317494173	-0.7876278683081884	0.0	0.9775340092555537	-0.5501763228294387	0.0	1.0027847777356458	-0.6586469149008286	0.0	0.9835503531405335	-0.766058929684124	0.0	1.0244566083670477	-0.7865143850487988	0.0	1.0197773759252609	-0.7824008683331718	0.0	0.9660317092620297	-0.7788991207835378	0.0	1.0373796041618195	-0.4152198973014651	0.0	1.0934989322116924	-0.35527633694764327	0.0	1.0925124692952846	-0.39092382664214376	0.0	1.0319370406681931	-0.4241325425707964	0.0	0.9571525276941227	-0.4286077561448904	0.0	0.8916965363557582	-0.43767012912045816	0.0	1.024738353427944	-0.42232006525928656	0.0	0.9570851814827417	-0.42917306479741313	0.0	0.9012771667886792	-0.45101867506345134	0.0
21	0.7044025157232703	0.9733896134198959	-0.5492747740104295	0.0	0.9721176756345035	-0.5459614419905081	0.0	1.0084597676289306	-0.6523162656112108	0.0	0.980949909475092	-0.7650985655728779	0.0	1.02339116700716	-0.7827798840795931	0.0	1.0124403912116833	-0.7878965066730268	0.0	0.969093065098872	-0.7784591394304723	0.0	0.9743686802851385	-0.5440790948716467	0.0	1.0092840841043416	-0.6493873355246523	0.0	0.9850739276251531	-0.7561418477333982	0.0	1.026418356559707	-0.7776458615798301	0.0	1.0217512519890009	-0.7731050484013361	0.0	0.9672533283585698	-0.7687187817608342	0.0	1.039191901174075	-0.4137100328854757	0.0	1.0983519505534425	-0.35519439803525193	0.0	1.0961932613944159	-0.3894751104681837	0.0	1.0342527710387355	-0.421927438299859	0.0	0.9580920582931494	-0.41925379753202663	0.0	0.8909649033526086	-0.4206883239818513	0.0	1.0264374096638484	-0.41914710550556766	0.0	0.956736371040926	-0.41897967971133676	0.0	0.898392082237518	-0.4351922930360927	0.0
22	0.7379454926624737	0.9706317441367399	-0.5457302408757188	0.0	0.9678775996564616	-0.5421120816324654	0.0	1.0137817989995754	-0.6448642567985031	0.0	0.9816274070818535	-0.7569870327133557	0.0	1.0255138554798295	-0.7756132659457301	0.0	1.0142932454234543	-0.7806048987363178	0.0	0.969457662161794	-0.770155878895343	0.0	0.9731446262295459	-0.5400240850895183	0.0	1.0180075486913256	-0.6407933500422625	0.0	0.9872679775194277	-0.7463601645685959	0.0	1.0285487848312769	-0.7693196463766827	0.0	1.0239557467786544	-0.7645676298490452	0.0	0.9695351538526146	-0.7589620494586398	0.0	1.0409841493038583	-0.41362855662615367	0.0	1.1016431884299136	-0.35612982002835614	0.0	1.0989289286340074	-0.3888741697159359	0.0	1.035635817442019	-0.42166161082900816	0.0	0.9586261298409748	-0.41419190560828867	0.0	0.8904283381587976	-0.41116316083221544	0.0	1.0286587079083507	-0.41808720218301276	0.0	0.9563160207990768	-0.4133800191987608	0.0	0.8957166373661081	-0.4256345527052085	0.0
23	0.771488469601677	0.9688337672298888	-0.5445766704315431	0.0	0.9642033841597933	-0.5407700208916332	0.0	1.019177919914373	-0.6397615698485889	0.0	0.9823624247088875	-0.7507027739436727	0.0	1.0269671704392196	-0.7700288546549471	0.0	1.015494045982266	-0.7749556109400666	0.0	0.9699467710032799	-0.7636250144082909	0.0	0.9741947810721341	-0.5385597714421856	0.0	1.0279216979605055	-0.6338891991461465	0.0	0.9900397212523188	-0.7376591009477514	0.0	1.030756793293684	-0.7624251341454384	0.0	1.0263415351604626	-0.7576087572987783	0.0	0.972764634641459	-0.7505322347108153	0.0	1.0426909395091752	-0.4153887024457021	0.0	1.1030998462711281	-0.35818893892244524	0.0	1.1005021313871344	-0.3896135307186155	0.0	1.0360826552233706	-0.4237844817988932	0.0	0.958428655089451	-0.4144914301191252	0.0	0.8893974333843192	-0.4109326685889761	0.0	1.0312069558981452	-0.4196287050276233	0.0	0.9556623581862268	-0.4135708565907607	0.0	0.8932598143477383	-0.42434098697879524	0.0
24	0.8050314465408803	0.9680321631951336	-0.5463533653355594	0.0	0.9614748896035028	-0.5424758869386056	0.0	1.0241314129999155	-0.6379680637964222	0.0	0.9830308550498492	-0.7471620847798406	0.0	1.0278129524039548	-0.7666350521348227	0.0	1.0160581401354662	-0.771631695178934	0.0	0.9704291384485967	-0.7597828251190463	0.0	0.9767191535566437	-0.5401223001665064	0.0	1.0375923783574201	-0.6297578986204992	0.0	0.9930149535683476	-0.7314525307579779	0.0	1.0329207129717803	-0.7580703640307066	0.0	1.0288067927322269	-0.7531881253084501	0.0	0.9764726412976582	-0.7447086391726714	0.0	1.0441478007198959	-0.4192324118306011	0.0	1.1024929249761324	-0.3615138644066965	0.0	1.100651836908647	-0.39213448631502257	0.0	1.0358464163896335	-0.4286134750060465	0.0	0.9577205345974431	-0.42115780676494025	0.0	0.8883645341322418	-0.42159005785723297	0.0	1.0335933236148203	-0.42396390260205224	0.0	0.9550372023711833	-0.4205242648228401	0.0	0.8919101468202866	-0.43269851398537323	0.0
25	0.8385744234800837	0.9679794467756461	-0.5514808823115592	0.0	0.9599896458347755	-0.547642063576717	0.0	1.0284664325987998	-0.640108570737567	0.0	0.9835642578116659	-0.7471195508592272	0.0	1.0281800561962016	-0.7661353635644339	0.0	1.0161137388210826	-0.7712787540517821	0.0	0.9708298679347569	-0.7594038027547974	0.0	0.9793169295603615	-0.5450670164196105	0.0	1.0455990878695185	-0.6294396371675777	0.0	0.9955837255683719	-0.7293434454967109	0.0	1.0349668875411122	-0.7573399407435758	0.0	1.0312074840613736	-0.7523249110272784	0.0	0.9799184220198502	-0.7429091876459014	0.0	1.0450411982757464	-0.425204649651105	0.0	1.0996820982288944	-0.36628906279945894	0.0	1.0991545431962235	-0.396733450010487	0.0	1.035226826487145	-0.43624665558790726	0.0	0.9574211853654221	-0.4349708043364855	0.0	0.8893115288914089	-0.44388051589949157	0.0	1.0351959003731708	-0.43104132567491693	0.0	0.9553554196209106	-0.43472343315068684	0.0	0.893686238491336	-0.4511366540754012	0.0
26	0.8721174004192871	0.968296163265027	-0.560163122300217	0.0	0.959905279713912	-0.5564808000645489	0.0	1.0321947329008885	-0.6465235732600841	0.0	0.9839753852427151	-0.7511651128686692	0.0	1.02818159886639	-0.7692972290985411	0.0	1.0157708405466592	-0.7745580741220827	0.0	0.9711569148506796	-0.7630607407056035	0.0	0.9808278110893246	-0.5536353998058089	0.0	1.050955930103828	-0.6338050274428286	0.0	0.9971469628213253	-0.7326069022328482	0.0	1.0368412893926706	-0.7609605421248061	0.0	1.0332934432644416	-0.7558623386221225	0.0	0.9823414362397693	-0.7461861739586938	0.0	1.044926196443136	-0.43319226909478736	0.0	1.0946546451234247	-0.372669763159365	0.0	1.0959113970615828	-0.4034783246046972	0.0	1.034277421196057	-0.4464943603770245	0.0	0.9590197343073825	-0.4559588380472976	0.0	0.8952845698125441	-0.4766390905148296	0.0	1.0354708375717143	-0.4406478576127463	0.0	0.958266213142866	-0.45577845832867203	0.0	0.9017587459733363	-0.47888484830433004	0.0
27	0.9056603773584905	0.9686438209981039	-0.5722898657222071	0.0	0.9611264014649483	-0.5689426769052569	0.0	1.0352444705640533	-0.6573280018502085	0.0	0.9843313169773847	-0.7597131570144702	0.0	1.0278343695110974	-0.7768237822907065	0.0	1.0150184012151027	-0.7820874513950559	0.0	0.9714613802651769	-0.7711211651247786	0.0	0.9807939572093907	-0.5658574614529274	0.0	1.0532441952681042	-0.6433982929876301	0.0	0.9973650976293407	-0.7418789580510211	0.0	1.0384552852197093	-0.7691249195653769	0.0	1.034692076623234	-0.7642401648351732	0.0	0.9832388900958754	-0.7549598740611033	0.0	1.0433538235345603	-0.44296577966650563	0.0	1.087460299691014	-0.38063475604881575	0.0	1.090931957655174	-0.41218796106472005	0.0	1.0327101350814842	-0.4588623489251919	0.0	0.9642505469569593	-0.4827697423793129	0.0	0.9096722538277451	-0.5163842100510929	0.0	1.0341236377677803	-0.45243154056532137	0.0	0.9657160136985844	-0.48193190644493583	0.0	0.9196733641265112	-0.513179911385006	0.0
28	0.9392033542976937	0.9688479908311578	-0.5873821784397594	0.0	0.963247438897001	-0.5846370728034695	0.0	1.0373206414277847	-0.6723497023996003	0.0	0.9846869185500625	-0.7728137298723737	0.0	1.0270540128814136	-0.7890500666880021	0.0	1.0137649477952864	-0.7941690050817056	0.0	0.971744933375258	-0.7836211196358316	0.0	0.9794391297380699	-0.5814117185226689	0.0	1.0525031034149392	-0.6582456378420839	0.0	0.9962506702913289	-0.7570151873533622	0.0	1.0396494609486275	-0.7814795894083318	0.0	1.0349833575443042	-0.7773684983489563	0.0	0.9824982864692778	-0.76901221136151	0.0	1.040056691257996	-0.4541873776225655	0.0	1.078135068385046	-0.38983650956193644	0.0	1.0842893185126738	-0.4224369003583976	0.0	1.0300930837619742	-0.47261444551813214	0.0	0.9745722426440578	-0.5123901541345037	0.0	0.9352700057952499	-0.5575830637962232	0.0	1.0312419493849039	-0.46584809320975235	0.0	0.979106861257279	-0.5098154293683207	0.0	0.9496720448532547	-0.5483564563848998	0.0
